<?xml version="1.0" encoding="UTF-8"?>
<svg id="Capa_1" xmlns="http://www.w3.org/2000/svg" version="1.1" viewBox="0 0 40 40">
  <!-- Generator: Adobe Illustrator 29.5.1, SVG Export Plug-In . SVG Version: 2.1.0 Build 141)  -->
  <defs>
    <style>
      .st0 {
        fill: #fff;
      }
    </style>
  </defs>
  <path class="st0" d="M8.45,17.98c-.18.28-.27.6-.27.94,0,.47.18.92.52,1.25.34.33.78.52,1.25.52s.92-.18,1.25-.52l1-1c.09.25.22.48.42.68.33.33.78.52,1.25.52s.92-.18,1.25-.52l1.97-1.97c.08.25.22.48.42.68.35.35.8.52,1.25.52s.91-.17,1.25-.52l.96-.96h0l.71-.71c-.38-.38-.98-.38-1.37-.03h0l-1,.99c-.3.3-.79.3-1.1,0-.3-.3-.3-.79,0-1.1l1.24-1.24h7.79c.13,0,.26-.05.35-.15l5.05-5.05-.71-.71-4.9,4.9h-9.61c.23-1.2,1.29-2.11,2.56-2.11h4.6v-1h-9.44c-.13,0-.26.05-.35.15l-5.28,5.28c-.3.3-.79.3-1.1,0-.3-.3-.3-.79,0-1.1l5.99-5.99,5.24-1.24,6.18-.28c.12,0,.24-.06.33-.15l1.77-1.77,2.36,2.36h0c.39.35.99.34,1.37-.04l-.71-.71h0l-2.67-2.67c-.2-.2-.51-.2-.71,0l-1.99,1.99-6.08.28-5.47,1.28c-.09.02-.17.07-.24.13l-6.09,6.09c-.69.69-.69,1.82,0,2.51.21.21.46.35.73.43l.03.04ZM18.05,15.53l-.53.53-3.09,3.09c-.29.29-.8.29-1.1,0-.15-.15-.23-.34-.23-.55s.08-.4.23-.55l3.06-3.06v.04c0,.28.22.5.5.5,0,0,1.16,0,1.16,0ZM9.4,18.38l2.85-2.85h0l3.1-3.1h2.16c-.13.12-.24.26-.35.4h0l-6.66,6.65c-.3.3-.79.3-1.1,0-.15-.15-.23-.34-.23-.55s.08-.4.23-.55Z"/>
  <path class="st0" d="M32.28,22.45c-.21-.21-.46-.35-.73-.43.43-.69.35-1.6-.25-2.19-.67-.67-1.84-.67-2.51,0l-1.01,1.01c-.08-.25-.22-.48-.42-.68-.69-.69-1.82-.69-2.51,0l-1.97,1.97c-.08-.25-.22-.48-.42-.68-.69-.69-1.82-.69-2.51,0l-1.24,1.24h0l-.67.67c.38.38.98.38,1.37.03h0l.03-.03h0l1.21-1.21c.3-.3.79-.3,1.1,0,.3.3.3.79,0,1.1l-1.24,1.24h-7.79c-.13,0-.26.05-.35.15l-5.05,5.05.71.71,4.9-4.9h9.61c-.23,1.2-1.29,2.11-2.56,2.11h-4.6v1h9.44c.13,0,.26-.05.35-.15l3.25-3.25h0l2.03-2.03c.3-.3.79-.3,1.09,0s.3.79,0,1.1l-5.99,5.99-5.24,1.24-6.18.27c-.12,0-.24.06-.33.15l-1.78,1.78-2.32-2.32h0l-.03-.03h0c-.39-.35-.99-.34-1.37.03l.67.67h0l2.71,2.71c.1.1.23.15.35.15s.26-.05.35-.15l1.99-1.99,6.08-.28,5.47-1.28c.09-.02.17-.07.24-.13l6.09-6.09c.69-.69.69-1.82,0-2.51l.03-.04ZM21.95,24.47l.53-.53,3.09-3.09c.3-.3.79-.3,1.1,0,.3.3.3.79,0,1.09l-3.06,3.06v-.04c0-.28-.22-.5-.5-.5h-1.16ZM30.6,21.62l-.82.82h0l-5.13,5.13h-2.16c.13-.12.24-.26.35-.4h0l.64-.63,3.89-3.89h0l2.13-2.13c.29-.29.8-.29,1.1,0,.15.15.23.34.23.55s-.08.4-.23.55Z"/>
</svg>