<?xml version="1.0" encoding="UTF-8"?>
<svg id="Capa_1" xmlns="http://www.w3.org/2000/svg" version="1.1" viewBox="0 0 40 40">
  <!-- Generator: Adobe Illustrator 29.5.1, SVG Export Plug-In . SVG Version: 2.1.0 Build 141)  -->
  <defs>
    <style>
      .st0 {
        fill: #fff;
      }
    </style>
  </defs>
  <path class="st0" d="M17.68,13.14s.11.04.17.04.12-.02.17-.04c.05-.03.11-.05.14-.1.09-.09.13-.2.13-.31s-.04-.23-.13-.32c-.17-.17-.46-.16-.62,0-.04.04-.08.09-.1.14-.03.06-.04.12-.04.18,0,.12.04.23.13.31.04.04.09.07.14.1h.01Z"/>
  <path class="st0" d="M21.98,13.14c.06.02.12.04.18.04.12,0,.22-.05.31-.13.08-.09.13-.2.13-.31,0-.06-.02-.12-.04-.18-.03-.05-.05-.1-.1-.14-.17-.16-.46-.16-.63,0-.04.04-.07.09-.1.14-.02.06-.03.12-.03.18,0,.12.04.23.12.31.04.04.09.07.14.1h.02Z"/>
  <path class="st0" d="M29.88,27.49c-.18-1.51-1.17-2.81-2.57-3.39l-3.41-1.43c-.42-.17-.68-.58-.68-1.03v-2.48c.61-.51,1.11-1.14,1.43-1.88,1.07-.75,1.77-1.99,1.77-3.39v-.45c0-.68-.45-1.25-1.07-1.45v-.39c.06-1.43-.45-2.78-1.45-3.81-.23-.23-.47-.44-.73-.62-.19-1.7-1.61-3.01-3.35-3.01-1.87,0-3.39,1.52-3.39,3.39v.09c-.09.08-.17.15-.26.24-1.05,1.09-1.6,2.51-1.54,4.02v.09c-.61.2-1.06.77-1.06,1.45v1.41c0,.82.64,1.48,1.45,1.52.25,1.12.87,2.1,1.75,2.82v2.45c0,.45-.27.85-.68,1.03l-3.41,1.43c-1.4.58-2.38,1.88-2.57,3.39l-1,8.25.88.11,1-8.25c.14-1.19.92-2.22,2.03-2.68l1.24-.52,2.56,4.13c.07.11.18.19.31.2h.07c.11,0,.21-.04.29-.11l2.34-2.03,2.34,2.03c.08.07.18.11.29.11h.07c.13-.02.24-.09.31-.2l2.63-4.25,1.51.63c1.11.46,1.88,1.49,2.03,2.68l1,8.25.88-.11-1-8.25h-.01ZM25.53,13.89c0,.59-.17,1.13-.44,1.61l.21-2.54c.14.12.23.29.23.48,0,0,0,.45,0,.45ZM24.48,11.57v.24c-1.75-.99-3.18-2.44-4.07-4.16-.08-.16-.24-.25-.43-.24-.95.07-2.26.45-3.35,1.33.07-.08.12-.17.19-.24.88-.91,2.06-1.41,3.33-1.41,1.19,0,2.29.47,3.11,1.32.82.85,1.25,1.97,1.21,3.16h0ZM19.83,5.05c1.04,0,1.93.63,2.3,1.54-.62-.25-1.29-.39-1.98-.39-.98,0-1.92.26-2.74.73.28-1.08,1.25-1.88,2.42-1.88ZM14.47,14.85v-1.41c0-.2.09-.37.23-.48l.2,2.49c-.25-.09-.43-.32-.43-.6ZM15.8,15.57l-.25-2.98c.27-2.96,2.66-4.05,4.21-4.27,1.05,1.88,2.69,3.45,4.66,4.47l-.23,2.78c-.03.39-.13.76-.26,1.11-.49.29-1.06.47-1.67.47h-2.44v.89h2.44c.33,0,.65-.05.95-.12-.78.93-1.93,1.53-3.22,1.53-.69,0-1.34-.16-1.95-.47-1.3-.67-2.14-1.95-2.25-3.4h0ZM22.36,27.62l-1.88-1.63,1.54-1.53h0l.6-.59c-.33-.34-.87-.34-1.22-.03h0l-.03.02h0l-1.54,1.53-1.54-1.53h0l-.03-.03h0c-.35-.31-.88-.3-1.22.03l.6.59h0l1.54,1.53-1.88,1.63-2.21-3.57,1.35-.56c.75-.31,1.23-1.04,1.23-1.85v-1.87c.73.37,1.51.56,2.33.56s1.63-.23,2.33-.59v1.9c0,.81.48,1.53,1.23,1.85l1.08.45-2.28,3.68h0Z"/>
  <path class="st0" d="M13.59,29.03c-1.03,1.56-1.33,3.58-.78,5.43l.85-.25c-.48-1.62-.19-3.46.74-4.79.05-.07.08-.16.08-.25v-1.96h-.89v1.83h0Z"/>
  <path class="st0" d="M26.41,27.2h-.89v1.96c0,.09.03.18.08.25.93,1.34,1.21,3.18.74,4.79l.85.25c.55-1.85.25-3.87-.78-5.43v-1.83h0Z"/>
  <path class="st0" d="M20.27,28.05c-.47,0-.85.37-.88.84h0v.04h0v6.25h.89v-6.29h0v-.84h-.01Z"/>
</svg>