<?xml version="1.0" encoding="UTF-8"?>
<svg id="Capa_1" xmlns="http://www.w3.org/2000/svg" version="1.1" viewBox="0 0 40 40">
  <!-- Generator: Adobe Illustrator 29.5.1, SVG Export Plug-In . SVG Version: 2.1.0 Build 141)  -->
  <defs>
    <style>
      .st0 {
        fill: #0033a0;
      }
    </style>
  </defs>
  <path class="st0" d="M28.13,8.24c-2.05-2.2-5.01-3.46-8.13-3.46s-6.05,1.25-8.09,3.43c-1.73,1.85-2.6,4.18-2.44,6.56.31,4.66,1.93,5.92,3.37,7.04,1.11.86,1.99,1.55,2.15,3.98,0,.15.07.28.15.38,0,.05,0,.1.02.15.08.31.36.52.67.52.06,0,.12,0,.18-.02l8.78-2.3c.08-.01.15-.03.21-.07.21-.1.35-.3.38-.52.42-1.11,1.09-1.64,1.86-2.26,1.39-1.11,2.96-2.36,3.29-6.89.17-2.37-.69-4.69-2.41-6.54,0,0,.01,0,.01,0ZM29.15,14.69c-.28,3.92-1.49,4.88-2.77,5.9-.82.65-1.66,1.33-2.22,2.67l-7.83,2.05c-.28-2.75-1.48-3.68-2.65-4.59-1.32-1.03-2.57-1.99-2.84-6.03-.13-2,.6-3.96,2.07-5.53,1.76-1.87,4.4-2.99,7.08-2.99s5.36,1.13,7.12,3.02c1.46,1.56,2.18,3.52,2.04,5.5Z"/>
  <path class="st0" d="M24.53,29.85l-8.87,2.33c-.37.1-.59.47-.49.84.08.31.36.52.67.52.06,0,.12,0,.18-.02l.67-.18c0,.13.05.26.14.37.72.94,1.91,1.51,3.19,1.51,2.13,0,3.86-1.55,3.86-3.45,0-.11-.03-.2-.07-.29l1.08-.28c.37-.1.59-.47.49-.84s-.47-.59-.84-.49v-.02h-.01ZM20,33.83c-.79,0-1.52-.31-1.99-.84l4.46-1.17c-.03,1.11-1.13,2.01-2.47,2.01Z"/>
  <path class="st0" d="M24.53,26.51l-8.87,2.33c-.37.1-.59.47-.49.84.08.31.36.52.67.52.06,0,.12,0,.18-.02l8.87-2.33c.37-.1.59-.47.49-.84s-.47-.59-.84-.49h0Z"/>
  <path class="st0" d="M24.89,11.55c-.33-.19-.75-.07-.94.26l-4.34,7.67-2.61-3.59c-.22-.31-.66-.38-.97-.15-.31.22-.38.66-.15.97l3.24,4.46c.13.18.34.29.56.29h.04c.23-.01.45-.15.56-.35l4.87-8.61c.19-.33.07-.75-.26-.94h0Z"/>
</svg>