<?xml version="1.0" encoding="UTF-8"?>
<svg id="Capa_1" xmlns="http://www.w3.org/2000/svg" version="1.1" viewBox="0 0 25 25">
  <!-- Generator: Adobe Illustrator 29.6.1, SVG Export Plug-In . SVG Version: 2.1.1 Build 9)  -->
  <defs>
    <style>
      .st0 {
        fill: #e3e829;
      }

      .st1 {
        fill: #2d6df6;
      }
    </style>
  </defs>
  <path class="st0" d="M13.48,1.33l2.46,7.58h7.97c.99,0,1.41,1.27.6,1.86l-6.45,4.69,2.46,7.58c.31.95-.77,1.73-1.58,1.15l-6.45-4.69-6.45,4.69c-.8.58-1.89-.2-1.58-1.15l2.46-7.58L.48,10.76c-.8-.58-.39-1.86.6-1.86h7.97l2.46-7.58c.31-.95,1.64-.95,1.95,0h.02Z"/>
  <path class="st1" d="M-21.66,7.83c.32-.13.64-.26.97-.33,3.86-.86,7.74-.78,11.62-.25.66.09,1.31.28,1.94.53,1.79.71,2.54,1.85,2.55,3.87,0,1.44-.38,2.44-1.25,3.15-.48.39-.7,1.03-.57,1.63l.22,1.04c.11.52-.5.89-.91.56l-1.77-1.44c-.35-.29-.81-.42-1.26-.36-1.39.17-2.81.17-4.21.19-.39,0-.79.01-1.18,0-2.07-.07-4.14-.14-6.12-.93-1.72-.69-2.46-1.83-2.47-3.68,0-2.14.65-3.23,2.44-3.98"/>
  <g>
    <path class="st1" d="M3.62,11.68h.41c.28,0,.5.05.67.13s.33.23.48.43l2.07,2.73v-3.29h1.27v5.55h-1.13l-2.49-3.29v3.29h-1.27v-5.55h-.01Z"/>
    <path class="st1" d="M9.43,11.68h3.1v1.17h-1.77v1.05h1.68v1.04h-1.68v1.12h1.84v1.17h-3.19v-5.55h.01Z"/>
    <path class="st1" d="M15.21,15.42l1.17-3.75h1.59l1.18,3.82.81-3.82h1.38l-1.37,5.55h-.79c-.25,0-.47-.06-.64-.19-.17-.13-.29-.32-.36-.58l-1.07-3.32-1.31,4.09h-.78c-.25,0-.46-.08-.62-.2-.17-.13-.29-.33-.34-.6l-1.17-4.76h1.5l.8,3.75h0Z"/>
  </g>
</svg>