<?xml version="1.0" encoding="UTF-8"?>
<svg id="Capa_1" xmlns="http://www.w3.org/2000/svg" version="1.1" viewBox="0 0 40 40">
  <!-- Generator: Adobe Illustrator 29.5.1, SVG Export Plug-In . SVG Version: 2.1.0 Build 141)  -->
  <defs>
    <style>
      .st0 {
        fill: #fff;
      }
    </style>
  </defs>
  <rect class="st0" x="6.29" y="9.67" width="13.46" height="1.35"/>
  <rect class="st0" x="6.29" y="6.2" width="13.46" height="1.35"/>
  <path class="st0" d="M22.89,12.17c-1.62,0-3.15.36-4.53,1v-.03H6.29v1.35h9.91c-.83.65-1.56,1.42-2.16,2.29h-7.75v1.35h6.94c-.36.72-.65,1.49-.84,2.29h-6.09v1.35h5.85c-.04.4-.07.8-.07,1.21,0,.36.02.72.05,1.07h-5.84v1.35h6.06c.19.81.46,1.59.82,2.32h-6.89v1.28h7.62c1.94,2.89,5.24,4.79,8.98,4.79,5.96,0,10.82-4.85,10.82-10.82s-4.85-10.82-10.82-10.82v.02ZM22.89,32.44c-5.22,0-9.46-4.24-9.46-9.46s4.24-9.46,9.46-9.46,9.46,4.24,9.46,9.46-4.24,9.46-9.46,9.46Z"/>
  <path class="st0" d="M23.75,22.53v-4.57c1.4.23,2.21,1.13,2.25,1.17l.51-.45.51-.44c-.05-.06-1.24-1.39-3.27-1.65v-1.19h-1.35v1.19c-2.16.28-3.32,1.9-3.32,3.44,0,1.11.49,2.6,2.83,3.41.16.06.33.1.49.15v4.69c-.9-.15-1.85-.62-2.67-1.59l-1.03.87c1.13,1.34,2.45,1.94,3.7,2.09v1.49h1.35v-1.51c.44-.06.86-.17,1.23-.31,1.38-.54,1.95-1.46,2.19-2.13.32-.9.21-1.95-.27-2.81-.73-1.28-1.95-1.59-3.14-1.86h-.01ZM22.34,22.17c-1.92-.66-1.92-1.76-1.92-2.13,0-.89.69-1.82,1.97-2.07v4.21s-.03,0-.05-.02h0ZM25.89,26.75c-.2.58-.69,1.03-1.41,1.32-.23.09-.48.16-.74.21v-4.35c.96.23,1.59.47,1.97,1.14.3.52.36,1.15.17,1.68h.01Z"/>
</svg>